<?xml version="1.0" standalone="no"?>
<svg xmlns:xlink="http://www.w3.org/1999/xlink" id="wave" style="transform:rotate(180deg); transition: 0.3s" viewBox="0 0 1440 100" version="1.1" xmlns="http://www.w3.org/2000/svg"><defs><linearGradient id="sw-gradient-0" x1="0" x2="0" y1="1" y2="0"><stop stop-color="rgba(252, 209, 150, 1)" offset="0%"/><stop stop-color="rgba(252, 209, 150, 1)" offset="100%"/></linearGradient></defs><path style="transform:translate(0, 0px); opacity:1" fill="url(#sw-gradient-0)" d="M0,40L48,35C96,30,192,20,288,25C384,30,480,50,576,53.3C672,57,768,43,864,36.7C960,30,1056,30,1152,36.7C1248,43,1344,57,1440,61.7C1536,67,1632,63,1728,53.3C1824,43,1920,27,2016,16.7C2112,7,2208,3,2304,5C2400,7,2496,13,2592,26.7C2688,40,2784,60,2880,60C2976,60,3072,40,3168,26.7C3264,13,3360,7,3456,15C3552,23,3648,47,3744,61.7C3840,77,3936,83,4032,86.7C4128,90,4224,90,4320,85C4416,80,4512,70,4608,60C4704,50,4800,40,4896,33.3C4992,27,5088,23,5184,21.7C5280,20,5376,20,5472,25C5568,30,5664,40,5760,43.3C5856,47,5952,43,6048,46.7C6144,50,6240,60,6336,66.7C6432,73,6528,77,6624,73.3C6720,70,6816,60,6864,55L6912,50L6912,100L6864,100C6816,100,6720,100,6624,100C6528,100,6432,100,6336,100C6240,100,6144,100,6048,100C5952,100,5856,100,5760,100C5664,100,5568,100,5472,100C5376,100,5280,100,5184,100C5088,100,4992,100,4896,100C4800,100,4704,100,4608,100C4512,100,4416,100,4320,100C4224,100,4128,100,4032,100C3936,100,3840,100,3744,100C3648,100,3552,100,3456,100C3360,100,3264,100,3168,100C3072,100,2976,100,2880,100C2784,100,2688,100,2592,100C2496,100,2400,100,2304,100C2208,100,2112,100,2016,100C1920,100,1824,100,1728,100C1632,100,1536,100,1440,100C1344,100,1248,100,1152,100C1056,100,960,100,864,100C768,100,672,100,576,100C480,100,384,100,288,100C192,100,96,100,48,100L0,100Z"/></svg>