<?xml version="1.0" standalone="no"?>
<svg xmlns:xlink="http://www.w3.org/1999/xlink" id="wave" style="transform:rotate(180deg); transition: 0.3s" viewBox="0 0 1440 100" version="1.1" xmlns="http://www.w3.org/2000/svg"><defs><linearGradient id="sw-gradient-0" x1="0" x2="0" y1="1" y2="0"><stop stop-color="rgba(252, 209, 150, 1)" offset="0%"/><stop stop-color="rgba(252, 209, 150, 1)" offset="100%"/></linearGradient></defs><path style="transform:translate(0, 0px); opacity:1" fill="url(#sw-gradient-0)" d="M0,40L30,41.7C60,43,120,47,180,55C240,63,300,77,360,80C420,83,480,77,540,61.7C600,47,660,23,720,26.7C780,30,840,60,900,63.3C960,67,1020,43,1080,35C1140,27,1200,33,1260,45C1320,57,1380,73,1440,76.7C1500,80,1560,70,1620,63.3C1680,57,1740,53,1800,46.7C1860,40,1920,30,1980,30C2040,30,2100,40,2160,50C2220,60,2280,70,2340,68.3C2400,67,2460,53,2520,41.7C2580,30,2640,20,2700,18.3C2760,17,2820,23,2880,25C2940,27,3000,23,3060,31.7C3120,40,3180,60,3240,71.7C3300,83,3360,87,3420,85C3480,83,3540,77,3600,68.3C3660,60,3720,50,3780,41.7C3840,33,3900,27,3960,33.3C4020,40,4080,60,4140,63.3C4200,67,4260,53,4290,46.7L4320,40L4320,100L4290,100C4260,100,4200,100,4140,100C4080,100,4020,100,3960,100C3900,100,3840,100,3780,100C3720,100,3660,100,3600,100C3540,100,3480,100,3420,100C3360,100,3300,100,3240,100C3180,100,3120,100,3060,100C3000,100,2940,100,2880,100C2820,100,2760,100,2700,100C2640,100,2580,100,2520,100C2460,100,2400,100,2340,100C2280,100,2220,100,2160,100C2100,100,2040,100,1980,100C1920,100,1860,100,1800,100C1740,100,1680,100,1620,100C1560,100,1500,100,1440,100C1380,100,1320,100,1260,100C1200,100,1140,100,1080,100C1020,100,960,100,900,100C840,100,780,100,720,100C660,100,600,100,540,100C480,100,420,100,360,100C300,100,240,100,180,100C120,100,60,100,30,100L0,100Z"/></svg>